<?xml version="1.0" standalone="no"?>
<!DOCTYPE svg PUBLIC "-//W3C//DTD SVG 20010904//EN"
 "http://www.w3.org/TR/2001/REC-SVG-20010904/DTD/svg10.dtd">
<svg version="1.0" xmlns="http://www.w3.org/2000/svg"
 width="700.000000pt" height="394.000000pt" viewBox="0 0 700.000000 394.000000"
 preserveAspectRatio="xMidYMid meet">

<g transform="translate(0.000000,394.000000) scale(0.100000,-0.100000)"
fill="#000000" stroke="none">
<path d="M3120 3783 c-381 -22 -880 -104 -1223 -203 -903 -259 -1528 -702
-1742 -1233 -155 -384 -62 -805 257 -1164 326 -369 895 -677 1574 -854 1286
-335 2786 -215 3834 305 608 302 992 721 1071 1166 14 83 14 258 0 336 -111
597 -752 1130 -1701 1414 -422 126 -809 195 -1280 230 -121 9 -652 11 -790 3z
m630 -33 c439 -20 549 -32 870 -96 347 -70 743 -189 979 -295 35 -16 66 -28
68 -26 6 7 -172 86 -288 127 -120 43 -478 149 -507 151 -9 0 -12 3 -6 5 25 10
355 -84 549 -157 162 -61 261 -105 422 -190 149 -80 237 -134 136 -84 -29 14
-53 24 -53 22 0 -2 45 -32 99 -66 55 -34 120 -81 145 -105 26 -23 48 -41 50
-39 1 2 23 -15 47 -38 l44 -41 -47 37 c-47 37 -61 37 -34 3 7 -10 15 -15 18
-13 3 3 13 -5 24 -17 19 -23 19 -23 -2 -5 -11 9 -23 14 -26 11 -3 -3 -48 24
-100 59 -341 236 -724 400 -1223 526 -1393 350 -3061 145 -4024 -494 -144 -95
-245 -180 -377 -318 -65 -68 -125 -122 -131 -120 -19 7 -16 21 4 19 10 0 18 6
18 15 0 23 95 145 169 218 36 36 62 69 59 74 -3 6 -2 7 3 4 6 -3 31 16 58 43
26 28 50 49 54 47 4 -1 41 23 82 54 121 89 179 125 328 202 78 41 139 77 135
81 -4 4 1 4 11 0 15 -6 17 -4 11 6 -5 9 -4 11 4 6 15 -9 53 3 46 15 -3 5 2 6
11 2 13 -5 15 -3 9 7 -5 9 -4 11 4 6 15 -9 53 3 46 15 -3 5 2 6 11 2 13 -5 15
-3 9 7 -5 9 -4 11 4 6 15 -10 83 13 76 25 -4 5 0 7 7 4 14 -5 301 89 294 96
-2 2 10 5 27 6 43 2 279 67 272 75 -3 3 6 3 21 0 17 -3 25 -1 21 5 -4 6 4 8
20 5 17 -3 24 -1 19 6 -4 7 6 9 31 6 28 -4 34 -3 23 5 -11 8 -5 9 25 5 22 -3
35 -2 28 3 -6 5 6 8 30 9 23 0 121 13 217 27 96 15 252 34 345 43 94 9 177 20
185 24 17 10 329 5 650 -10z m957 -96 c-3 -3 -12 -4 -19 -1 -8 3 -5 6 6 6 11
1 17 -2 13 -5z m56 -11 c-7 -2 -19 -2 -25 0 -7 3 -2 5 12 5 14 0 19 -2 13 -5z
m44 -9 c-3 -3 -12 -4 -19 -1 -8 3 -5 6 6 6 11 1 17 -2 13 -5z m40 -10 c-3 -3
-12 -4 -19 -1 -8 3 -5 6 6 6 11 1 17 -2 13 -5z m-890 -39 c446 -36 863 -119
1229 -245 65 -22 124 -42 129 -44 6 -1 21 -8 35 -14 14 -6 65 -27 113 -47 106
-44 191 -88 234 -121 17 -13 36 -24 42 -24 6 0 11 -4 11 -10 0 -5 11 -12 24
-16 13 -3 34 -17 47 -30 12 -13 31 -24 41 -24 11 0 16 -4 13 -10 -5 -9 15 -15
38 -11 4 0 7 -6 7 -14 0 -8 5 -15 10 -15 6 0 10 -8 10 -17 0 -18 41 -43 68
-43 7 0 10 -4 7 -10 -3 -5 -1 -10 5 -10 6 0 8 -4 5 -10 -3 -5 1 -10 9 -10 20
0 62 -40 70 -67 4 -13 15 -23 26 -23 24 0 48 -39 31 -50 -7 -3 2 -7 19 -7 36
0 50 -10 30 -24 -11 -8 -9 -9 9 -4 16 5 21 4 17 -4 -4 -6 -2 -11 3 -11 6 0 11
-7 11 -15 0 -9 8 -24 18 -35 9 -10 25 -46 35 -79 11 -38 24 -61 33 -61 8 0 14
-6 14 -13 0 -21 -47 -56 -68 -52 -18 3 -19 0 -10 -34 11 -43 57 -107 58 -80 0
18 30 48 30 31 0 -19 -51 -72 -69 -72 -29 0 -101 -96 -101 -134 0 -9 -4 -16
-10 -16 -5 0 -10 -7 -10 -15 0 -8 5 -15 11 -15 5 0 7 -5 4 -10 -4 -6 -11 -8
-16 -5 -5 4 -9 -3 -9 -14 0 -14 -6 -21 -20 -21 -11 0 -20 5 -20 10 0 6 -9 10
-20 10 -28 0 -120 87 -120 114 0 17 -2 18 -10 6 -8 -12 -10 -11 -10 6 0 15
-14 28 -46 45 -51 26 -91 27 -114 3 -14 -15 -13 -16 8 -9 13 4 41 4 63 0 l40
-7 -4 -188 c-3 -155 -7 -193 -21 -214 -25 -39 -63 -59 -111 -59 -44 0 -87 26
-240 146 -92 72 -267 197 -275 197 -16 0 -20 -35 -20 -191 l0 -160 -60 3 -60
3 0 177 c0 210 7 235 78 269 84 41 105 32 345 -148 116 -88 218 -163 225 -167
9 -6 12 29 12 158 0 163 0 166 -20 154 -21 -14 -53 -92 -42 -104 4 -4 1 -3 -7
1 -11 6 -13 4 -8 -9 4 -10 3 -15 -4 -11 -5 4 -16 2 -23 -4 -15 -12 -80 12
-149 56 -21 13 -42 21 -47 18 -5 -3 -7 1 -4 9 5 12 -12 23 -46 31 -3 1 -31 14
-62 29 -50 24 -65 27 -111 22 -35 -5 -63 -15 -82 -31 -15 -14 -31 -25 -35 -25
-4 0 -11 -8 -14 -17 -4 -10 -17 -36 -30 -58 -14 -22 -25 -52 -25 -67 -1 -15
-5 -29 -10 -33 -5 -3 -7 -21 -4 -40 6 -37 -12 -95 -30 -95 -5 0 -15 -6 -21
-14 -6 -8 -21 -17 -33 -21 -20 -5 -23 -3 -23 22 0 16 -9 36 -20 46 -11 9 -20
23 -20 31 0 8 -7 17 -16 20 -9 4 -14 9 -10 13 3 3 -3 13 -15 21 -12 8 -18 20
-14 30 3 8 2 18 -2 21 -4 3 -19 29 -33 56 -25 51 -79 119 -88 110 -3 -2 -17 5
-33 16 -18 13 -50 21 -91 24 -249 18 -429 11 -506 -20 -24 -10 -41 -19 -39
-22 2 -2 17 2 33 8 39 16 546 13 589 -3 40 -15 65 -37 59 -52 -3 -7 2 -26 11
-42 12 -23 15 -66 15 -196 l0 -168 -37 0 c-68 0 -83 9 -83 46 0 20 5 34 12 34
8 0 9 3 2 10 -7 7 -107 9 -280 8 l-269 -3 -5 -45 -5 -45 -57 -1 -58 -1 0 176
c1 134 4 182 15 201 21 37 18 50 -3 15 -40 -66 -73 -181 -72 -252 0 -12 -8
-27 -18 -32 -15 -9 -15 -10 0 -11 11 0 15 -6 11 -19 -2 -10 3 -40 12 -66 12
-38 13 -50 3 -56 -8 -5 -4 -11 15 -20 15 -7 27 -16 27 -21 0 -5 4 -7 9 -4 5 4
11 3 13 -1 6 -15 68 -42 83 -37 9 4 16 -3 21 -20 4 -17 13 -26 26 -26 11 0 28
-5 39 -10 13 -8 19 -7 19 0 0 6 5 8 11 4 27 -17 -27 -24 -183 -24 -124 0 -168
3 -168 12 0 9 -3 9 -12 0 -7 -7 -22 -12 -35 -12 -17 0 -21 4 -16 18 5 14 3 13
-10 -3 -14 -17 -18 -18 -27 -5 -14 22 -12 50 4 50 8 0 17 -6 19 -12 3 -7 6 6
6 30 1 23 6 42 11 42 6 0 10 9 10 20 0 11 -5 20 -11 20 -7 0 -9 12 -5 36 5 25
2 43 -9 61 -9 14 -15 36 -12 49 2 13 -7 55 -20 92 -14 37 -31 92 -37 122 -28
127 -62 169 -68 83 l-3 -48 -306 -3 c-303 -2 -306 -2 -327 -25 -18 -19 -22
-36 -23 -99 -1 -42 1 -81 5 -86 8 -14 0 -13 296 -19 233 -4 256 -3 267 13 7
10 13 21 13 26 0 4 -60 8 -134 8 -73 0 -147 5 -165 11 -27 9 -31 16 -31 45 0
21 8 42 20 54 18 18 33 20 196 20 96 0 183 -4 193 -9 15 -9 17 -22 14 -108 -4
-128 -8 -140 -46 -163 -30 -19 -51 -20 -310 -20 -317 0 -323 1 -397 78 l-45
47 0 110 c0 89 3 116 18 138 9 15 15 27 12 27 -12 0 -38 -54 -50 -107 -44
-181 12 -300 181 -386 27 -14 59 -37 71 -51 15 -17 33 -26 53 -26 20 0 30 -5
30 -15 0 -13 -141 -15 -1209 -15 l-1210 0 -25 -22 c-26 -24 -41 -75 -28 -94 4
-6 19 -14 33 -17 23 -6 26 -4 25 16 -1 20 19 46 36 47 4 0 7 -10 5 -22 -2 -18
4 -24 26 -26 30 -4 57 12 57 34 0 7 -14 15 -32 17 -18 2 -5 3 30 2 34 -1 62 1
62 4 0 3 99 6 220 6 121 0 220 2 220 5 0 3 21 4 47 3 82 -3 230 -4 433 -3 107
0 305 -3 440 -6 135 -4 263 -7 285 -6 l40 1 -27 -15 c-29 -15 -36 -38 -18 -49
14 -9 60 22 60 39 0 20 80 25 342 24 198 -2 226 -4 204 -15 -27 -14 -34 -37
-16 -48 17 -11 60 23 60 48 0 17 2 19 10 7 6 -10 25 -14 72 -11 169 7 238 6
234 -5 -3 -9 3 -9 26 0 24 8 32 8 35 -2 3 -6 9 -10 14 -7 5 4 32 8 60 10 45 3
51 1 61 -21 14 -30 41 -31 65 -1 18 22 23 22 266 25 136 2 259 7 273 12 37 14
38 13 8 -13 -16 -14 -24 -29 -20 -35 12 -19 43 -14 63 11 17 21 24 22 186 22
92 1 167 -3 167 -7 0 -5 11 -6 25 -2 15 4 32 1 42 -7 12 -10 15 -10 9 -1 -9
15 8 16 35 2 11 -6 25 -7 32 -3 23 14 37 11 37 -8 0 -27 34 -24 57 4 18 23 50
26 36 4 -5 -9 -3 -9 8 0 8 6 40 10 78 8 35 -1 111 0 170 4 58 4 108 5 111 2 9
-10 120 -12 120 -2 0 5 8 12 17 15 15 6 15 5 -1 -13 -10 -11 -15 -25 -11 -30
10 -17 40 -13 60 9 12 14 22 17 30 10 6 -5 15 -7 18 -3 4 3 7 0 7 -7 0 -11 3
-11 12 -2 7 7 17 8 29 2 9 -5 58 -10 109 -11 60 -1 87 -5 78 -11 -9 -7 -7 -8
7 -3 23 9 31 9 64 1 13 -3 31 -1 40 4 11 6 21 4 33 -7 12 -11 21 -12 36 -4 22
12 52 5 52 -11 0 -6 -6 -5 -15 2 -19 16 -37 3 -30 -21 7 -21 -30 -109 -46
-109 -12 0 -11 17 1 25 13 8 3 25 -16 25 -8 0 -14 -7 -14 -15 0 -8 -11 -17
-25 -21 -14 -3 -25 -11 -25 -16 0 -6 -7 -8 -15 -5 -8 4 -17 2 -20 -4 -4 -5
-10 -7 -15 -4 -11 7 -41 -5 -35 -14 2 -4 -3 -8 -11 -8 -10 0 -11 4 -4 11 14
14 13 23 -4 23 -8 0 -14 -5 -13 -11 3 -16 -85 -7 -105 11 -9 8 -22 12 -27 8
-6 -3 -11 0 -11 7 0 8 -8 14 -17 15 -10 1 -33 5 -50 9 -18 3 -41 3 -50 -1 -10
-3 -20 -6 -23 -6 -12 -1 -40 -33 -40 -47 0 -40 -69 -69 -97 -41 -15 15 -86 0
-79 -17 6 -16 -10 -28 -19 -14 -3 5 -11 10 -16 10 -6 0 -8 -3 -6 -8 3 -4 -13
-7 -35 -8 -40 0 -43 -2 -83 -58 -11 -14 -17 -16 -27 -8 -36 29 -144 10 -173
-30 -21 -31 -64 -56 -86 -51 -10 3 -19 10 -19 15 0 12 -97 8 -130 -6 -24 -10
-60 -43 -60 -55 0 -3 -9 -12 -19 -18 -16 -10 -28 -9 -64 7 -25 11 -59 18 -77
16 -46 -5 -107 -37 -121 -63 -15 -28 -29 -29 -71 -3 -18 11 -48 20 -65 20 -26
0 -36 -6 -48 -30 -9 -16 -18 -30 -21 -30 -3 0 -20 10 -37 22 -39 28 -68 26
-104 -8 -26 -24 -28 -32 -28 -102 -1 -75 10 -122 27 -122 4 0 8 -7 8 -15 0 -8
6 -12 13 -9 18 7 41 -22 33 -42 -5 -12 -17 -15 -51 -12 -25 2 -45 0 -45 -3 0
-14 -286 -24 -432 -15 -26 1 -45 0 -43 -3 3 -5 -119 -5 -320 0 -38 1 -80 6
-92 10 -13 5 -33 5 -45 0 -21 -8 -19 -10 17 -17 66 -14 764 -11 920 4 790 74
1454 276 1930 586 167 109 356 274 368 321 3 11 5 -3 4 -32 -1 -28 -4 -51 -7
-50 -3 1 -6 -2 -8 -8 -2 -5 -12 -13 -23 -17 -10 -4 -19 -15 -19 -23 0 -9 -4
-14 -9 -11 -14 9 -34 -22 -28 -44 3 -11 1 -23 -4 -26 -5 -3 -9 4 -9 15 0 12
-5 21 -11 21 -5 0 -8 -4 -5 -9 3 -5 -4 -21 -15 -35 -17 -21 -24 -24 -35 -15
-19 16 -18 -1 2 -29 22 -32 11 -38 -25 -13 -18 13 -32 17 -36 11 -3 -5 1 -10
9 -10 10 0 13 -6 10 -15 -4 -8 -1 -15 6 -15 6 0 8 -5 5 -10 -4 -7 -15 -2 -27
12 l-20 23 8 -29 c5 -21 4 -27 -5 -22 -7 5 -11 0 -11 -13 0 -11 -9 -22 -21
-26 -13 -4 -18 -12 -15 -21 3 -9 1 -12 -5 -9 -5 4 -15 2 -22 -3 -7 -5 -26 -13
-44 -16 -29 -7 -46 -25 -48 -53 0 -7 -5 -12 -10 -10 -6 1 -9 6 -7 11 1 4 -14
6 -35 3 -46 -6 -113 -25 -95 -26 6 -1 12 -6 12 -12 0 -6 -9 -9 -20 -6 -11 3
-18 2 -15 -3 10 -17 -26 -32 -63 -27 -20 4 -31 3 -24 -1 9 -6 5 -15 -14 -33
-18 -16 -28 -20 -31 -11 -3 6 -9 12 -14 12 -5 0 -4 -8 2 -19 18 -28 5 -55 -20
-41 -26 13 -31 13 -31 -4 0 -9 -7 -13 -18 -11 -10 2 -25 -1 -33 -6 -12 -8 -12
-10 1 -8 27 3 40 -1 40 -12 0 -6 -5 -7 -12 -2 -7 4 -17 8 -23 9 -5 0 -16 2
-24 2 -18 2 26 42 45 42 14 0 39 38 31 46 -9 9 -37 -9 -37 -23 0 -8 -4 -11
-10 -8 -5 3 -18 1 -27 -4 -14 -8 -15 -10 -3 -11 13 0 13 -1 0 -10 -9 -6 -17
-5 -22 3 -5 7 -8 1 -8 -15 0 -17 6 -28 18 -31 16 -4 16 -4 -2 -12 -10 -4 -21
-4 -25 1 -9 13 -54 11 -70 -4 -7 -7 -10 -16 -7 -20 4 -3 11 0 16 8 5 8 12 11
17 7 13 -14 -20 -27 -56 -22 -26 3 -38 -1 -48 -14 -7 -10 -26 -21 -43 -24 -16
-4 -30 -13 -30 -20 0 -10 -8 -13 -25 -9 -14 2 -31 -1 -39 -7 -7 -6 -21 -9 -30
-5 -9 3 -16 1 -16 -6 0 -7 -11 -9 -31 -6 -38 6 -59 -1 -59 -20 0 -8 -5 -13
-11 -11 -6 1 -13 -6 -14 -16 -5 -27 -11 -30 -28 -12 -21 21 -34 19 -40 -6 -3
-12 -10 -18 -16 -14 -6 3 -11 -2 -12 -12 0 -15 -2 -14 -11 5 -11 22 -35 25
-30 3 1 -7 -14 -11 -40 -11 -32 0 -39 -3 -28 -10 8 -5 13 -10 10 -11 -3 0 -15
-2 -27 -5 -13 -2 -23 1 -23 6 0 6 5 10 12 10 6 0 9 2 6 5 -9 9 -38 -6 -38 -20
0 -7 -18 -15 -42 -19 -23 -4 -50 -14 -59 -22 -9 -8 -24 -14 -35 -13 -35 4 -67
-1 -60 -8 10 -10 -73 -33 -92 -26 -11 5 -13 3 -7 -6 6 -10 3 -11 -13 -2 -25
14 -43 14 -22 1 11 -7 7 -10 -17 -10 -17 0 -39 -7 -48 -17 -14 -14 -18 -14
-26 -2 -6 10 -9 10 -9 2 0 -7 -7 -13 -15 -13 -8 0 -15 6 -15 13 0 8 -2 9 -8 1
-4 -7 -27 -14 -52 -17 -25 -2 -56 -7 -70 -10 -27 -7 -202 -28 -285 -34 -27 -3
-207 -5 -400 -6 -277 -2 -326 -4 -235 -10 262 -18 780 2 1094 43 702 91 1362
320 1804 627 428 297 672 680 648 1014 -10 136 -69 314 -143 431 -27 44 -28
48 -8 48 8 0 19 -9 25 -20 6 -11 17 -20 24 -20 8 0 16 -10 20 -22 5 -19 8 -21
16 -8 7 11 10 11 10 2 0 -7 7 -23 15 -36 18 -27 54 -25 56 3 0 9 5 3 10 -13
10 -36 5 -44 -16 -26 -26 22 -26 6 0 -59 52 -126 68 -223 62 -371 -4 -117 -8
-147 -36 -229 -64 -192 -166 -351 -328 -515 -116 -116 -208 -190 -378 -301
-932 -611 -2594 -812 -3950 -479 -251 62 -473 134 -729 239 -163 67 -323 155
-511 283 -234 159 -406 330 -516 514 -62 103 -64 128 -4 68 24 -25 69 -70 100
-100 30 -30 67 -70 82 -88 31 -37 212 -196 217 -191 2 2 -43 53 -100 113 -57
59 -104 113 -104 120 0 6 -8 16 -19 23 -10 6 -32 40 -48 75 -17 35 -44 90 -59
123 -24 49 -29 73 -29 132 0 39 -3 66 -7 60 -4 -6 -7 4 -7 23 0 50 -12 120
-20 120 -10 0 -6 127 4 165 5 17 17 45 27 63 10 18 18 42 18 53 0 11 5 17 10
14 7 -4 9 6 7 30 -3 26 -1 33 6 26 21 -21 37 -12 37 19 0 20 9 40 26 57 14 14
19 23 10 20 -20 -8 -20 -3 0 17 28 29 84 129 84 152 0 14 21 43 53 76 30 29
56 61 60 70 4 11 12 15 23 11 13 -5 15 -2 9 15 -4 15 -2 22 6 22 14 0 69 59
69 74 0 6 5 4 10 -4 6 -9 10 -10 10 -3 0 18 102 113 122 113 16 0 23 11 19 33
0 4 3 7 9 7 5 0 10 -4 10 -10 0 -20 18 -9 24 15 4 14 13 25 21 25 8 0 15 4 15
9 0 5 15 15 33 22 17 7 40 21 50 30 9 8 30 22 45 30 15 7 38 21 51 31 13 10
27 15 32 12 5 -3 9 -2 9 3 0 4 28 21 63 37 34 15 85 39 112 51 414 193 1003
331 1640 384 175 15 679 12 882 -4z m2113 -451 c0 -2 -9 0 -20 6 -11 6 -20 13
-20 16 0 2 9 0 20 -6 11 -6 20 -13 20 -16z m-5501 -281 c-6 -10 -23 -27 -37
-37 -21 -15 -20 -12 7 17 38 41 47 46 30 20z m-78 -76 c-10 -9 -11 -8 -5 6 3
10 9 15 12 12 3 -3 0 -11 -7 -18z m-148 -162 c-3 -9 -8 -14 -10 -11 -3 3 -2 9
2 15 9 16 15 13 8 -4z m-30 -71 c-5 -30 -3 -36 15 -41 l21 -5 -22 -32 c-41
-59 -49 -67 -62 -56 -14 12 -9 39 20 118 23 60 36 68 28 16z m6017 16 c0 -5
-4 -10 -10 -10 -5 0 -10 5 -10 10 0 6 5 10 10 10 6 0 10 -4 10 -10z m-5960
-10 c13 -8 13 -10 -2 -10 -9 0 -20 5 -23 10 -8 13 5 13 25 0z m80 -270 c0 -5
-2 -10 -4 -10 -3 0 -8 5 -11 10 -3 6 -1 10 4 10 6 0 11 -4 11 -10z m5927 -302
l-2 -233 -29 -3 c-16 -2 -44 -1 -63 3 l-33 6 0 223 c0 122 3 226 7 229 3 4 32
7 64 7 l58 0 -2 -232z m-2627 -288 c0 -5 -2 -10 -4 -10 -3 0 -8 5 -11 10 -3 6
-1 10 4 10 6 0 11 -4 11 -10z m-20 -104 c0 -8 3 -21 6 -30 5 -13 -4 -15 -63
-12 -37 2 -66 7 -63 12 3 5 24 8 47 6 34 -3 42 0 48 17 7 24 25 28 25 7z m580
-31 c0 -8 -4 -15 -10 -15 -5 0 -10 7 -10 15 0 8 5 15 10 15 6 0 10 -7 10 -15z
m870 -6 c0 -5 -4 -9 -10 -9 -5 0 -10 7 -10 16 0 8 5 12 10 9 6 -3 10 -10 10
-16z m-910 1 c0 -5 -7 -10 -15 -10 -8 0 -15 5 -15 10 0 6 7 10 15 10 8 0 15
-4 15 -10z m960 0 c0 -5 -4 -10 -10 -10 -5 0 -10 5 -10 10 0 6 5 10 10 10 6 0
10 -4 10 -10z m-275 -80 c-3 -5 -12 -10 -18 -10 -7 0 -6 4 3 10 19 12 23 12
15 0z m1238 -58 c-4 -15 -16 -25 -34 -29 -20 -4 -29 -12 -29 -25 0 -26 -17
-14 -22 17 -4 16 -1 25 8 25 7 0 26 11 41 24 31 27 45 22 36 -12z m-543 -210
c74 -68 74 -69 51 -81 -19 -11 -28 -11 -47 0 -33 17 -74 -2 -74 -34 0 -15 -9
-28 -24 -35 -24 -11 -25 -10 -31 46 -3 31 -8 78 -11 104 -4 38 -1 49 13 57 33
19 49 11 123 -57z m-261 -105 c17 -46 31 -88 31 -94 0 -6 -14 -14 -31 -18 -27
-6 -36 -2 -73 34 -23 23 -45 39 -48 35 -4 -3 2 -26 13 -51 21 -48 18 -63 -10
-63 -14 0 -26 21 -50 85 -18 46 -30 89 -27 94 3 5 18 12 32 15 23 6 34 0 70
-35 24 -24 46 -40 49 -37 3 3 -3 25 -14 49 -14 31 -17 47 -9 56 21 26 36 11
67 -70z m-299 -37 c0 -14 -9 -21 -35 -26 -26 -5 -35 -11 -35 -26 0 -21 4 -21
70 -6 8 2 15 -4 17 -14 3 -11 -7 -20 -32 -28 -25 -8 -35 -17 -33 -28 4 -18 12
-18 66 -7 28 7 32 5 32 -12 0 -16 -13 -23 -62 -37 -33 -9 -64 -13 -68 -9 -9
10 -50 146 -50 167 0 10 17 21 48 30 66 20 82 20 82 -4z m900 -20 c0 -5 -4
-10 -10 -10 -5 0 -10 5 -10 10 0 6 5 10 10 10 6 0 10 -4 10 -10z m-1139 -69
c33 -34 40 -91 14 -128 -16 -23 -103 -57 -131 -51 -12 2 -24 28 -40 88 -12 47
-19 88 -16 92 9 9 79 26 115 27 19 1 38 -9 58 -28z m-287 -62 c26 -30 35 -85
20 -124 -15 -37 -102 -58 -146 -34 -23 12 -48 67 -48 104 0 16 12 38 29 56 24
23 38 29 74 29 38 0 49 -5 71 -31z m1116 -14 c0 -8 -9 -15 -20 -15 -22 0 -27
15 -7 23 21 9 27 7 27 -8z m-4800 -61 c0 -3 -20 9 -45 26 -25 17 -45 33 -45
36 0 3 20 -9 45 -26 25 -17 45 -33 45 -36z m3409 -26 c12 -91 9 -107 -22 -108
-11 0 -27 47 -27 81 0 44 -17 35 -25 -13 -16 -97 -51 -106 -89 -23 -14 30 -27
55 -30 55 -3 0 -4 -26 -3 -57 2 -52 0 -58 -19 -61 -20 -3 -22 4 -33 86 -6 48
-11 94 -11 100 0 7 17 12 44 12 43 0 44 -1 64 -50 12 -27 25 -50 30 -50 5 0
13 23 16 52 4 28 9 55 12 60 3 4 22 8 43 8 l38 0 12 -92z m1341 58 c0 -3 -4
-8 -10 -11 -5 -3 -10 -1 -10 4 0 6 5 11 10 11 6 0 10 -2 10 -4z m-1253 -192
c-3 -3 -12 -4 -19 -1 -8 3 -5 6 6 6 11 1 17 -2 13 -5z m-58 -33 c10 -7 7 -9
-12 -8 -14 1 -23 5 -20 10 6 9 15 9 32 -2z m665 -49 c3 -5 -1 -9 -9 -9 -8 0
-12 4 -9 9 3 4 7 8 9 8 2 0 6 -4 9 -8z m-3440 -57 c3 -8 1 -15 -4 -15 -6 0
-10 5 -10 11 0 5 -5 7 -12 3 -7 -4 -8 -3 -4 4 10 16 23 15 30 -3z m84 -35 c6
0 12 -5 12 -10 0 -6 -15 -4 -36 5 -20 8 -38 15 -40 15 -2 0 -4 4 -4 9 0 6 12
3 28 -5 15 -7 33 -14 40 -14z m3787 1 c-27 -25 -355 -128 -545 -171 -457 -104
-914 -146 -1479 -137 -510 8 -880 51 -1291 148 -148 35 -406 115 -434 135 -29
20 -18 18 86 -17 498 -166 1000 -245 1628 -256 411 -7 692 9 1060 63 218 31
550 106 675 150 22 8 50 16 63 17 12 0 22 4 22 8 0 3 28 14 63 24 34 9 69 20
77 23 8 3 21 4 28 3 6 -1 12 3 12 9 0 5 10 10 22 10 13 0 18 -4 13 -9z"/>
<path d="M5750 3290 c8 -5 20 -10 25 -10 6 0 3 5 -5 10 -8 5 -19 10 -25 10 -5
0 -3 -5 5 -10z"/>
<path d="M3483 3403 c-7 -2 -32 -46 -56 -96 -128 -268 -412 -518 -819 -723
-101 -51 -117 -65 -118 -106 0 -22 7 -31 36 -43 20 -8 55 -15 78 -15 l41 0
-32 20 c-35 21 -35 36 1 77 22 25 38 30 35 11 -3 -28 2 -38 19 -38 23 0 42 19
42 43 0 15 -5 18 -24 13 -14 -3 -28 -1 -32 6 -4 6 -3 8 3 5 6 -4 16 0 23 8 7
8 17 15 23 15 5 0 26 10 46 22 19 12 41 23 47 24 6 1 23 13 39 28 15 14 34 26
41 26 7 0 19 8 26 18 7 10 38 36 68 57 30 21 63 45 72 54 9 9 33 30 52 46 156
131 299 316 366 472 32 75 37 76 291 63 466 -23 851 -86 1279 -209 61 -17 94
-29 230 -81 30 -12 66 -25 80 -30 14 -4 66 -28 115 -52 50 -24 106 -50 125
-58 19 -7 42 -19 50 -25 8 -6 31 -19 50 -29 51 -26 71 -38 111 -68 20 -16 40
-28 45 -28 5 0 21 -11 36 -25 15 -14 32 -25 38 -25 5 0 10 -3 10 -7 1 -5 25
-24 55 -43 30 -19 59 -45 64 -58 6 -12 22 -27 35 -32 14 -5 30 -18 36 -30 6
-11 19 -20 30 -20 17 0 17 -2 -5 -26 -27 -29 -31 -49 -14 -59 12 -8 49 23 49
42 0 20 18 16 25 -7 6 -19 -9 -59 -23 -61 -4 -1 -43 -3 -87 -5 -44 -3 -105 -6
-135 -8 -30 -2 -105 -5 -166 -6 -61 -1 -117 -6 -125 -11 -8 -5 100 -9 277 -9
217 0 294 3 306 13 29 23 47 61 38 83 -10 26 -124 128 -238 214 -478 360
-1270 608 -2137 670 -143 10 -400 12 -422 3z"/>
<path d="M3522 3348 c-19 -19 -15 -48 7 -48 24 0 45 25 37 45 -7 18 -27 20
-44 3z"/>
<path d="M2428 3308 c-27 -11 -45 -25 -41 -31 3 -5 1 -7 -5 -3 -12 7 -61 -13
-63 -26 -1 -4 -2 -14 -3 -20 -1 -7 -7 -12 -13 -11 -33 7 -351 -421 -495 -667
-118 -200 -119 -202 -100 -216 14 -10 10 -13 -24 -18 -62 -11 -77 -26 -25 -26
37 0 48 5 77 37 19 20 34 41 34 45 0 5 25 47 57 94 37 57 67 90 87 99 l31 14
-32 -6 c-26 -4 -34 -1 -40 13 -5 13 7 31 52 71 32 29 66 53 75 53 9 0 25 7 36
16 18 14 18 15 -4 4 l-23 -11 17 33 c36 71 235 323 387 491 43 48 75 87 71 87
-5 -1 -30 -10 -56 -22z"/>
<path d="M4077 3313 c-4 -3 -7 -15 -7 -25 0 -14 6 -19 23 -16 29 4 38 48 9 48
-10 0 -22 -3 -25 -7z"/>
<path d="M3068 3252 c-76 -24 -92 -33 -127 -74 -23 -25 -41 -52 -41 -59 0 -10
3 -10 12 -1 7 7 24 12 39 12 15 0 30 3 32 8 3 4 31 8 63 10 32 2 66 7 75 13
19 10 53 61 64 97 8 29 -6 28 -117 -6z"/>
<path d="M2693 3253 c9 -2 25 -2 35 0 9 3 1 5 -18 5 -19 0 -27 -2 -17 -5z"/>
<path d="M4634 3232 c-19 -13 -25 -42 -9 -48 20 -8 45 13 45 37 0 19 -16 25
-36 11z"/>
<path d="M1828 3137 c-46 -29 -83 -64 -122 -115 -109 -141 -267 -383 -348
-532 -71 -130 -78 -145 -72 -162 4 -13 1 -16 -10 -12 -9 3 -16 1 -16 -4 0 -6
-8 -13 -17 -15 -12 -3 -10 -5 7 -6 35 -1 62 24 104 99 100 177 293 461 440
648 89 113 110 142 105 142 -2 0 -34 -19 -71 -43z"/>
<path d="M1525 3060 c-55 -22 -109 -44 -120 -49 -11 -6 -59 -28 -108 -50 -48
-23 -89 -40 -91 -38 -2 1 -12 -5 -22 -14 -17 -15 -48 -29 -66 -29 -5 0 -17 -9
-28 -20 -11 -11 -27 -20 -35 -20 -8 0 -15 -4 -15 -10 0 -5 -7 -10 -15 -10 -8
0 -15 -4 -15 -10 0 -5 -5 -10 -11 -10 -5 0 -7 6 -3 13 5 8 3 8 -9 -2 -9 -7
-14 -18 -10 -24 3 -6 1 -7 -5 -3 -6 3 -20 -4 -31 -16 -12 -12 -21 -18 -21 -14
0 12 -60 -34 -112 -86 -26 -26 -48 -57 -48 -68 0 -11 -6 -23 -13 -26 -8 -3
-12 -20 -10 -46 2 -34 9 -49 37 -75 19 -18 39 -32 43 -31 4 1 17 -2 28 -8 25
-13 178 -17 313 -8 l103 6 68 137 c79 157 134 251 237 408 67 101 87 143 67
143 -5 0 -53 -18 -108 -40z m-396 -284 c-17 -18 -156 -116 -163 -116 -19 0 50
63 99 91 43 25 78 38 64 25z m25 -58 c-19 -64 -140 -188 -182 -188 -20 0 -42
26 -42 49 0 18 195 158 223 160 5 1 5 -9 1 -21z"/>
<path d="M5160 3070 c-12 -23 -6 -40 15 -40 14 0 35 29 35 49 0 19 -39 12 -50
-9z"/>
<path d="M3312 3008 c-16 -16 -15 -48 1 -48 19 0 37 21 37 42 0 21 -20 24 -38
6z"/>
<path d="M5670 2851 c-15 -29 -12 -41 10 -41 18 0 40 26 40 49 0 19 -39 12
-50 -8z"/>
<path d="M3000 2735 c-16 -20 -1 -39 26 -33 27 5 32 48 6 48 -11 0 -25 -7 -32
-15z"/>
<path d="M1958 2583 c7 -3 16 -2 19 1 4 3 -2 6 -13 5 -11 0 -14 -3 -6 -6z"/>
<path d="M4374 2540 c-28 -11 -39 -39 -18 -47 19 -7 47 19 42 40 -2 10 -9 12
-24 7z"/>
<path d="M4949 2529 c-16 -16 -18 -24 -10 -32 16 -16 45 3 49 32 4 27 -12 27
-39 0z"/>
<path d="M5539 2531 c-20 -16 -22 -22 -11 -33 17 -17 46 1 50 31 4 26 -9 27
-39 2z"/>
<path d="M3183 2533 c-17 -6 -17 -43 0 -43 17 0 37 20 37 37 0 13 -15 16 -37
6z"/>
<path d="M3760 2520 c-9 -16 -8 -22 5 -26 18 -7 45 12 45 32 0 21 -38 17 -50
-6z"/>
<path d="M1670 2511 l-25 -7 28 -6 c19 -4 27 -1 27 8 0 8 -1 14 -2 13 -2 -1
-14 -4 -28 -8z"/>
<path d="M6290 2440 c-8 -5 -10 -10 -5 -10 6 0 17 5 25 10 8 5 11 10 5 10 -5
0 -17 -5 -25 -10z"/>
<path d="M5510 2430 l-25 -8 28 -1 c15 -1 27 4 27 9 0 6 -1 10 -2 9 -2 -1 -14
-5 -28 -9z"/>
<path d="M5555 2430 c3 -5 21 -10 40 -10 19 0 37 5 40 10 4 6 -12 10 -40 10
-28 0 -44 -4 -40 -10z"/>
<path d="M2663 2423 c9 -2 25 -2 35 0 9 3 1 5 -18 5 -19 0 -27 -2 -17 -5z"/>
<path d="M6230 2396 c0 -2 7 -6 15 -10 8 -3 15 -1 15 4 0 6 -7 10 -15 10 -8 0
-15 -2 -15 -4z"/>
<path d="M6250 2320 c0 -5 5 -10 10 -10 6 0 10 5 10 10 0 6 -4 10 -10 10 -5 0
-10 -4 -10 -10z"/>
<path d="M650 2234 c-21 -12 18 -14 265 -14 160 0 301 -3 315 -5 23 -5 23 -5
4 4 -12 5 -139 12 -283 15 -145 3 -266 7 -269 9 -4 2 -18 -2 -32 -9z"/>
<path d="M3022 2226 c-34 -9 6 -12 215 -14 142 -1 283 0 313 4 l55 7 -40 8
c-59 12 -493 8 -543 -5z"/>
<path d="M2053 2223 c53 -2 141 -2 195 0 53 1 9 3 -98 3 -107 0 -151 -2 -97
-3z"/>
<path d="M2370 2216 c0 -2 11 -6 25 -8 13 -3 22 -1 19 3 -5 9 -44 13 -44 5z"/>
<path d="M1285 2198 c11 -6 27 -16 35 -22 9 -6 5 -1 -8 12 -13 12 -28 22 -35
22 -7 0 -3 -6 8 -12z"/>
<path d="M572 2195 c4 -4 -2 -24 -14 -43 -19 -31 -22 -53 -25 -191 -5 -172 4
-210 58 -262 33 -32 109 -46 153 -30 15 6 53 14 84 17 31 3 62 10 69 16 9 7
13 7 13 -2 0 -7 7 -10 15 -7 8 4 17 2 21 -4 4 -7 10 -7 18 0 6 5 27 10 46 10
49 -1 84 5 91 13 9 13 68 16 74 4 3 -8 7 -7 11 2 3 6 20 12 37 12 36 1 117 55
162 108 24 28 28 44 33 117 4 76 2 89 -21 139 -14 30 -30 57 -35 60 -19 11
-22 -26 -5 -57 9 -18 17 -54 17 -82 0 -62 -36 -121 -93 -153 -37 -21 -50 -22
-299 -22 -287 0 -272 4 -272 -66 0 -33 -1 -34 -37 -34 -21 0 -48 3 -60 6 -23
6 -23 7 -23 225 0 164 -3 220 -12 225 -7 4 -10 4 -6 -1z"/>
<path d="M2466 2169 c10 -11 19 -26 19 -32 0 -7 6 -28 13 -47 8 -23 11 -88 9
-190 l-2 -155 -34 -3 c-19 -2 -45 -1 -58 3 -22 5 -24 10 -21 48 l3 42 -270 0
-270 0 -5 -45 -5 -45 -63 -1 -63 0 3 172 c2 95 0 170 -4 166 -12 -13 -28 -139
-27 -218 1 -87 18 -135 57 -170 32 -28 55 -29 176 -9 49 8 94 11 100 8 5 -4
26 -8 45 -10 19 -2 41 -9 49 -15 10 -9 16 -8 23 3 7 10 11 11 17 2 4 -7 30
-12 59 -11 28 0 60 -5 72 -11 11 -7 46 -12 76 -13 30 -1 55 -6 55 -11 0 -6 5
-6 13 0 6 6 29 13 50 17 20 4 46 16 56 28 11 11 24 17 30 14 6 -4 10 4 10 21
-1 15 3 51 8 78 5 28 6 68 2 90 -34 188 -50 235 -98 284 -34 34 -55 43 -25 10z"/>
<path d="M4030 2169 c0 -5 5 -7 10 -4 6 3 10 8 10 11 0 2 -4 4 -10 4 -5 0 -10
-5 -10 -11z"/>
<path d="M715 2067 c-4 -13 -5 -43 -3 -66 l3 -42 245 1 c271 1 283 3 293 62 4
25 1 37 -15 51 -18 15 -46 17 -269 17 l-249 0 -5 -23z"/>
<path d="M1866 2074 c-11 -10 -16 -33 -16 -67 l0 -52 267 5 268 5 0 40 c0 22
4 43 8 46 5 3 1 13 -8 23 -14 14 -47 16 -260 16 -208 0 -246 -2 -259 -16z"/>
<path d="M4127 2072 c-11 -12 -17 -36 -17 -68 l0 -49 269 3 269 3 4 52 c2 29
0 58 -5 65 -7 9 -71 12 -257 12 -226 0 -248 -2 -263 -18z"/>
<path d="M1116 1704 c-20 -19 -20 -25 -2 -18 8 3 17 12 20 20 7 18 1 18 -18
-2z"/>
<path d="M1408 1459 c-21 -12 -23 -35 -4 -42 18 -7 56 20 56 39 0 16 -27 18
-52 3z"/>
<path d="M1998 1459 c-10 -5 -18 -17 -18 -25 0 -23 50 -13 68 14 14 21 13 22
-9 22 -13 0 -32 -5 -41 -11z"/>
<path d="M5976 1395 c-9 -26 -7 -32 5 -12 6 10 9 21 6 23 -2 3 -7 -2 -11 -11z"/>
<path d="M770 1393 c0 -6 8 -17 18 -24 16 -13 16 -13 2 6 -8 11 -16 22 -17 24
-2 2 -3 0 -3 -6z"/>
<path d="M898 1268 c5 -5 16 -8 23 -6 8 3 3 7 -10 11 -17 4 -21 3 -13 -5z"/>
<path d="M1340 1245 c-25 -19 -52 -41 -61 -48 -21 -16 -40 -53 -32 -61 3 -3 7
-19 7 -36 1 -27 -2 -30 -29 -30 -27 0 -22 -5 40 -40 39 -22 76 -38 83 -35 7 3
11 1 8 -4 -7 -11 43 -33 56 -25 6 4 8 2 5 -3 -9 -14 319 -151 331 -138 3 3 3
6 1 8 -12 7 -105 51 -111 51 -14 2 -20 16 -7 17 15 1 17 2 74 13 68 13 69 14
54 33 -8 9 -9 14 -4 11 6 -4 21 2 34 12 20 15 24 26 23 66 -4 93 -58 140 -108
93 -24 -23 -29 -19 -25 23 1 9 -8 23 -20 31 -29 21 -55 7 -98 -50 -37 -51 -51
-46 -51 19 0 65 -37 128 -74 128 -18 -1 -17 -3 7 -16 l29 -16 -7 -96 c-4 -53
-10 -100 -14 -104 -12 -13 -49 21 -44 40 6 26 -58 57 -78 36 -16 -15 -59 -8
-59 9 0 7 33 42 73 79 76 70 74 93 -3 33z m316 -80 c4 -9 -4 -43 -17 -77 -21
-58 -22 -61 -5 -74 28 -20 44 -7 68 58 22 63 39 78 63 58 12 -10 11 -19 -7
-68 -31 -83 -54 -105 -101 -99 -45 6 -87 41 -87 71 0 12 10 49 22 84 16 46 27
62 40 62 10 0 21 -7 24 -15z m-126 -170 c0 -8 10 -23 22 -35 12 -11 18 -20 12
-20 -5 -1 2 -7 16 -15 24 -14 24 -14 -15 -8 -22 3 -45 10 -51 15 -7 5 -16 8
-20 7 -22 -4 -33 3 -39 22 -6 17 -9 19 -16 8 -6 -10 -9 -8 -9 9 0 15 6 22 19
22 29 0 52 11 45 22 -4 6 3 5 15 -1 11 -7 21 -18 21 -26z m274 10 c-4 -8 -8
-15 -10 -15 -2 0 -4 7 -4 15 0 8 4 15 10 15 5 0 7 -7 4 -15z"/>
<path d="M937 1239 c7 -7 15 -10 18 -7 3 3 -2 9 -12 12 -14 6 -15 5 -6 -5z"/>
<path d="M970 1216 c0 -2 12 -12 28 -21 l27 -18 -19 21 c-17 20 -36 29 -36 18z"/>
<path d="M1395 1190 c-16 -18 -17 -23 -5 -30 17 -10 33 11 28 36 -2 13 -6 12
-23 -6z"/>
<path d="M1050 1161 c14 -11 30 -21 35 -21 11 0 -7 14 -40 31 -13 7 -12 3 5
-10z"/>
<path d="M1100 1131 c0 -9 30 -24 36 -18 2 1 -6 8 -16 15 -11 7 -20 8 -20 3z"/>
<path d="M761 1121 c6 -16 159 -126 159 -114 0 5 -21 23 -47 41 -27 17 -63 44
-82 59 -19 16 -32 22 -30 14z"/>
<path d="M5926 1099 c-11 -11 -25 -19 -33 -19 -7 0 -13 -4 -13 -9 0 -10 67 -7
77 3 4 3 2 14 -3 25 -9 18 -9 18 -28 0z"/>
<path d="M1856 1097 c-20 -15 -34 -81 -35 -164 -1 -41 4 -58 20 -74 11 -11 27
-18 34 -15 8 3 17 0 21 -5 8 -14 84 60 78 76 -3 7 2 19 10 28 9 9 16 20 16 25
0 6 5 12 12 14 14 5 18 47 6 70 -9 19 -68 54 -68 41 0 -4 -5 -2 -12 5 -16 16
-60 15 -82 -1z m91 -24 c60 -19 74 -49 26 -55 -23 -3 -29 -11 -44 -62 -20 -67
-29 -79 -52 -70 -22 8 -21 28 3 98 20 58 20 58 0 63 -24 6 -27 43 -3 43 9 0
40 -8 70 -17z"/>
<path d="M1176 1078 c3 -5 10 -6 15 -3 13 9 11 12 -6 12 -8 0 -12 -4 -9 -9z"/>
<path d="M2099 1022 c-62 -27 -90 -88 -75 -166 9 -49 83 -106 136 -106 35 0
110 39 118 61 6 15 22 10 22 -7 0 -22 29 -68 51 -82 10 -6 63 -18 118 -26 113
-17 134 -13 166 34 15 22 23 26 32 18 7 -6 13 -16 13 -22 1 -18 42 -60 73 -73
34 -16 91 -17 117 -3 30 16 69 58 61 66 -3 4 6 -1 22 -11 15 -9 27 -23 27 -30
0 -7 15 -24 34 -39 30 -22 41 -25 83 -20 26 3 56 6 66 7 9 1 17 5 17 10 0 6
12 20 27 33 l27 23 23 -35 c13 -18 30 -34 38 -34 7 0 21 -3 31 -7 12 -4 15 -3
10 5 -4 7 -2 10 6 7 15 -6 58 37 58 58 0 6 6 3 12 -8 18 -31 75 -85 92 -85 8
0 16 -4 18 -9 2 -6 20 -5 46 2 28 7 41 16 38 24 -3 7 -2 13 3 13 5 0 14 14 21
30 7 17 16 30 21 30 8 0 24 -40 21 -53 -1 -5 2 -6 7 -3 5 3 23 1 41 -6 28 -9
35 -8 45 5 7 10 18 17 24 17 7 0 10 4 6 9 -3 5 -1 12 3 15 5 3 10 32 11 66 2
47 -3 69 -20 100 -20 36 -27 40 -61 40 -31 0 -40 -5 -53 -29 -8 -16 -18 -55
-21 -85 -4 -31 -11 -59 -15 -62 -5 -3 -7 1 -4 8 3 7 -5 18 -17 23 -12 6 -34
33 -48 61 -35 70 -48 84 -79 84 -30 0 -71 -36 -71 -63 0 -22 -19 -22 -27 1
-11 32 -46 62 -73 62 -30 0 -53 -21 -69 -63 -10 -26 -35 -33 -37 -11 -2 27
-17 63 -24 59 -4 -3 -10 1 -13 9 -8 21 -81 35 -126 24 -32 -8 -43 -18 -62 -54
l-22 -44 -14 28 c-24 50 -77 93 -121 99 -48 6 -127 -27 -137 -58 -10 -31 -32
-22 -39 16 -12 63 -84 96 -121 55 -25 -28 -42 -25 -60 9 -29 56 -109 48 -137
-15 -14 -30 -25 -31 -34 -1 -9 30 -40 68 -72 89 -27 18 -101 23 -133 10z m133
-42 c27 -28 30 -36 25 -76 -7 -64 -37 -94 -95 -94 -35 0 -49 6 -74 30 -27 28
-30 36 -25 76 7 64 37 94 95 94 35 0 49 -6 74 -30z m226 -35 c2 -2 6 -28 9
-59 3 -31 10 -56 14 -56 5 0 20 23 34 50 27 54 26 53 75 44 32 -7 32 -7 25
-53 -17 -119 -25 -141 -51 -141 -27 0 -29 11 -15 73 12 51 -1 46 -33 -13 -15
-27 -33 -50 -39 -50 -27 0 -40 21 -45 69 -6 68 -18 73 -27 10 -7 -50 -21 -66
-49 -56 -11 5 -11 18 1 89 19 115 17 111 61 103 20 -4 38 -8 40 -10z m384 -56
c64 -17 87 -92 49 -156 -22 -35 -62 -49 -111 -38 -84 19 -95 156 -15 191 37
16 32 16 77 3z m292 -29 c38 -14 51 -46 32 -75 -10 -15 -12 -26 -6 -30 18 -11
11 -64 -9 -75 -25 -13 -128 -13 -136 0 -3 5 -3 50 1 100 l7 90 43 0 c23 0 54
-4 68 -10z m204 -103 l3 -97 -26 0 c-25 0 -25 0 -25 93 0 97 4 110 30 105 12
-3 16 -22 18 -101z m417 18 c8 -95 4 -115 -24 -115 -26 0 -31 18 -31 109 0 82
3 91 31 91 14 0 18 -14 24 -85z m-235 -5 l5 -75 35 0 c25 0 36 -5 38 -17 2
-13 -3 -18 -20 -19 -13 0 -36 -2 -53 -4 -63 -6 -65 -3 -65 101 l0 95 28 -3
c26 -3 27 -5 32 -78z"/>
<path d="M2142 962 c-18 -12 -31 -64 -21 -90 6 -15 17 -22 34 -22 20 0 29 8
41 37 25 58 -8 104 -54 75z"/>
<path d="M2782 838 c-17 -17 -15 -83 3 -98 35 -29 70 13 63 76 -2 22 -9 30
-28 32 -14 2 -31 -3 -38 -10z"/>
<path d="M3077 823 c-16 -15 -6 -33 18 -33 28 0 34 24 9 34 -19 7 -19 7 -27
-1z"/>
<path d="M3070 731 c0 -16 6 -21 26 -21 33 0 30 33 -4 38 -17 3 -22 -2 -22
-17z"/>
<path d="M962 981 c-6 -4 2 -14 19 -23 34 -20 37 -16 10 11 -10 10 -23 16 -29
12z"/>
<path d="M5685 970 c-3 -6 1 -7 9 -4 18 7 21 14 7 14 -6 0 -13 -4 -16 -10z"/>
<path d="M1020 942 c0 -22 311 -183 475 -247 39 -14 91 -35 117 -46 174 -71
654 -204 778 -214 19 -2 42 -5 50 -8 22 -9 176 -35 240 -41 64 -6 30 8 -41 17
-24 4 -80 13 -124 22 -44 9 -105 20 -135 25 -30 5 -98 21 -150 35 -52 14 -113
30 -135 35 -88 20 -140 34 -145 40 -3 3 -14 7 -25 7 -38 3 -115 26 -115 36 0
5 -7 6 -16 3 -8 -3 -32 3 -52 13 -40 21 -42 21 -74 21 -19 0 -20 2 -8 11 12 9
12 10 -3 5 -11 -3 -50 8 -90 26 -40 17 -78 31 -84 31 -7 0 -13 4 -13 9 0 4 -8
8 -17 8 -10 0 -44 13 -75 29 -32 16 -58 27 -58 23 0 -4 -4 -2 -8 4 -8 13 -94
54 -112 54 -6 0 -8 5 -4 12 4 6 3 8 -3 5 -6 -4 -26 4 -46 17 -19 13 -44 27
-56 31 -12 3 -21 11 -21 17 0 6 -3 8 -7 5 -3 -4 -15 0 -25 10 -10 9 -18 11
-18 5z"/>
<path d="M5650 940 c-18 -12 -2 -12 25 0 13 6 15 9 5 9 -8 0 -22 -4 -30 -9z"/>
<path d="M1760 820 c0 -5 24 -16 54 -24 68 -20 81 -20 36 0 -52 24 -90 34 -90
24z"/>
<path d="M1890 775 c0 -5 106 -38 130 -40 9 0 20 -4 25 -7 11 -7 127 -38 141
-38 16 0 -40 34 -61 37 -60 9 -73 12 -102 21 -18 6 -33 9 -33 7 0 -3 -12 0
-27 6 -35 13 -73 21 -73 14z"/>
<path d="M5132 725 c0 -16 2 -22 5 -12 2 9 2 23 0 30 -3 6 -5 -1 -5 -18z"/>
<path d="M2200 693 c0 -5 84 -26 188 -46 200 -40 290 -54 281 -44 -3 4 -25 9
-50 12 -24 3 -57 12 -74 19 -16 8 -57 17 -90 20 -33 3 -91 12 -130 21 -38 8
-82 18 -97 21 -16 4 -28 2 -28 -3z"/>
<path d="M2680 598 c0 -4 7 -8 15 -8 9 0 79 -7 156 -16 185 -20 201 -13 23 10
-182 23 -194 24 -194 14z"/>
<path d="M2765 379 c-3 -3 16 -9 42 -13 58 -8 138 -8 130 0 -8 9 -168 21 -172
13z"/>
<path d="M2968 353 c12 -2 32 -2 45 0 12 2 2 4 -23 4 -25 0 -35 -2 -22 -4z"/>
<path d="M3045 350 c-3 -5 -1 -10 4 -10 6 0 11 5 11 10 0 6 -2 10 -4 10 -3 0
-8 -4 -11 -10z"/>
<path d="M5566 1183 c9 -35 8 -35 27 -27 15 5 15 8 0 30 -21 32 -35 30 -27 -3z"/>
<path d="M4740 933 c0 -10 5 -35 11 -55 11 -43 35 -50 62 -20 21 23 21 41 1
70 -19 28 -74 31 -74 5z"/>
<path d="M4462 888 c-16 -16 -15 -69 1 -92 19 -26 59 -17 71 15 18 52 -37 112
-72 77z"/>
</g>
</svg>
